<svg xmlns="http://www.w3.org/2000/svg" width="100" height="100"><g><rect y="-2.966" x="-5.508" height="110.593" width="111.017" fill="#f9f9f9"/><path d="M37.2 2.962c-22.754 4.013-37.946 25.708-33.933 48.463 4.013 22.755 25.711 37.948 48.465 33.935 22.754-4.013 37.946-25.711 33.933-48.467-4.013-22.754-25.711-37.944-48.464-33.931zm19.822 19.165c3.627-.64 7.093 1.785 7.732 5.412.641 3.634-1.787 7.091-5.415 7.731-3.628.64-7.09-1.779-7.731-5.413-.64-3.627 1.784-7.091 5.413-7.731zm-31.892 5.624c3.628-.64 7.09 1.785 7.73 5.413.641 3.634-1.784 7.091-5.412 7.73-3.628.64-7.089-1.779-7.73-5.413-.64-3.627 1.785-7.091 5.412-7.73zm25.413 50.866c-18.369 3.24-36.069-10.069-39.124-27.393l66.518-11.731c3.055 17.324-9.025 35.885-27.394 39.124z" fill="#ccc"/><path d="M97.349 77.075c0 11.701-9.485 21.186-21.186 21.186s-21.186-9.485-21.186-21.186 9.485-21.186 21.186-21.186 21.186 9.485 21.186 21.186z" fill="#fff"/><g fill="#ccc"><path d="M80.917 55.471c-11.931-2.626-23.733 4.918-26.359 16.849-2.626 11.932 4.918 23.733 16.849 26.359 11.932 2.626 23.733-4.917 26.359-16.849 2.626-11.931-4.918-23.733-16.849-26.359zm11.119 29.814l-.938 4.262c-.12.544-.607.841-1.151.721l-31.716-6.981c-.545-.12-.888-.599-.768-1.143l.938-4.262 2.633-11.961.38-1.725c.06-.273.338-.55.61-.49l2.176.479.322-1.465c.12-.544.881-1.054 1.426-.934l4.939 1.087c.545.12.837.862.717 1.406l-.322 1.465 23.445 5.16c.272.06.382.422.322.695l-.38 1.725-2.633 11.961z"/><path d="M78.073 69.515c-4.218-.928-8.389 1.738-9.317 5.956-.928 4.218 1.738 8.39 5.955 9.318 4.218.928 8.39-1.739 9.319-5.957.929-4.217-1.739-8.39-5.957-9.318zm-2.587 11.753c-2.269-.499-3.709-2.752-3.209-5.021s2.752-3.709 5.021-3.21c2.269.499 3.709 2.752 3.21 5.021-.499 2.27-2.752 3.71-5.021 3.21z"/></g></g></svg>