<?xml version="1.0" encoding="UTF-8" standalone="no"?>
<!-- Generator: Adobe Illustrator 17.0.0, SVG Export Plug-In . SVG Version: 6.00 Build 0)  -->

<svg
   xmlns:dc="http://purl.org/dc/elements/1.1/"
   xmlns:cc="http://creativecommons.org/ns#"
   xmlns:rdf="http://www.w3.org/1999/02/22-rdf-syntax-ns#"
   xmlns:svg="http://www.w3.org/2000/svg"
   xmlns="http://www.w3.org/2000/svg"
   xmlns:sodipodi="http://sodipodi.sourceforge.net/DTD/sodipodi-0.dtd"
   xmlns:inkscape="http://www.inkscape.org/namespaces/inkscape"
   version="1.1"
   id="Layer_1"
   x="0px"
   y="0px"
   width="100px"
   height="100px"
   viewBox="0 0 100 100"
   enable-background="new 0 0 100 100"
   xml:space="preserve"
   inkscape:version="0.48.4 r9939"
   sodipodi:docname="fi-marker.svg"><metadata
     id="metadata11"><rdf:RDF><cc:Work
         rdf:about=""><dc:format>image/svg+xml</dc:format><dc:type
           rdf:resource="http://purl.org/dc/dcmitype/StillImage" /><dc:title></dc:title></cc:Work></rdf:RDF></metadata><defs
     id="defs9" /><sodipodi:namedview
     pagecolor="#ffffff"
     bordercolor="#666666"
     borderopacity="1"
     objecttolerance="10"
     gridtolerance="10"
     guidetolerance="10"
     inkscape:pageopacity="0"
     inkscape:pageshadow="2"
     inkscape:window-width="640"
     inkscape:window-height="480"
     id="namedview7"
     showgrid="false"
     inkscape:zoom="2.36"
     inkscape:cx="50"
     inkscape:cy="50"
     inkscape:window-x="0"
     inkscape:window-y="31"
     inkscape:window-maximized="0"
     inkscape:current-layer="Layer_1" /><g
     id="g3"
     style="fill:#ffffff"><path
       d="M50,10.417c-15.581,0-28.201,12.627-28.201,28.201c0,6.327,2.083,12.168,5.602,16.873L45.49,86.823   c0.105,0.202,0.21,0.403,0.339,0.588l0.04,0.069l0.011-0.006c0.924,1.278,2.411,2.111,4.135,2.111c1.556,0,2.912-0.708,3.845-1.799   l0.047,0.027l0.179-0.31c0.264-0.356,0.498-0.736,0.667-1.155L72.475,55.65c3.592-4.733,5.726-10.632,5.726-17.032   C78.201,23.044,65.581,10.417,50,10.417z M49.721,52.915c-7.677,0-13.895-6.221-13.895-13.895c0-7.673,6.218-13.895,13.895-13.895   s13.895,6.222,13.895,13.895C63.616,46.693,57.398,52.915,49.721,52.915z"
       id="path5"
       style="fill:#ffffff" /></g></svg>