<?xml version="1.0" encoding="UTF-8" standalone="no"?>
<svg
   xmlns:dc="http://purl.org/dc/elements/1.1/"
   xmlns:cc="http://creativecommons.org/ns#"
   xmlns:rdf="http://www.w3.org/1999/02/22-rdf-syntax-ns#"
   xmlns:svg="http://www.w3.org/2000/svg"
   xmlns="http://www.w3.org/2000/svg"
   xmlns:sodipodi="http://sodipodi.sourceforge.net/DTD/sodipodi-0.dtd"
   xmlns:inkscape="http://www.inkscape.org/namespaces/inkscape"
   version="1.1"
   id="Layer_1"
   x="0px"
   y="0px"
   width="100px"
   height="100px"
   viewBox="0 0 100 100"
   enable-background="new 0 0 100 100"
   xml:space="preserve"
   inkscape:version="0.48.4 r9939"
   sodipodi:docname="user_avatar.svg"><metadata
     id="metadata11"><rdf:RDF><cc:Work
         rdf:about=""><dc:format>image/svg+xml</dc:format><dc:type
           rdf:resource="http://purl.org/dc/dcmitype/StillImage" /><dc:title></dc:title></cc:Work></rdf:RDF></metadata><defs
     id="defs9" /><sodipodi:namedview
     pagecolor="#ffffff"
     bordercolor="#666666"
     borderopacity="1"
     objecttolerance="10"
     gridtolerance="10"
     guidetolerance="10"
     inkscape:pageopacity="0"
     inkscape:pageshadow="2"
     inkscape:window-width="1920"
     inkscape:window-height="1027"
     id="namedview7"
     showgrid="false"
     inkscape:zoom="2.36"
     inkscape:cx="-20.127119"
     inkscape:cy="50"
     inkscape:window-x="0"
     inkscape:window-y="31"
     inkscape:window-maximized="1"
     inkscape:current-layer="Layer_1" /><g
     id="g3775"><rect
       y="-2.9661016"
       x="-5.5084743"
       height="110.59322"
       width="111.01695"
       id="rect3771"
       style="fill:#f9f9f9;fill-opacity:1;stroke:none" /><g
       style="fill:#cccccc"
       transform="matrix(0.96048152,-0.16938883,0.16938883,0.96048152,-12.027417,4.6063816)"
       id="g3"><path
         style="fill:#cccccc"
         inkscape:connector-curvature="0"
         id="path5"
         d="M 50,7.106 C 26.31,7.106 7.106,26.307 7.106,49.998 7.106,73.689 26.31,92.894 50,92.894 73.69,92.894 92.894,73.69 92.894,49.998 92.894,26.308 73.69,7.106 50,7.106 z m 16.602,22.881 c 3.776,0 6.844,3.065 6.844,6.842 0,3.783 -3.067,6.842 -6.844,6.842 -3.777,0 -6.842,-3.059 -6.842,-6.842 0,-3.776 3.064,-6.842 6.842,-6.842 z m -33.204,0 c 3.777,0 6.841,3.065 6.841,6.842 0,3.783 -3.064,6.842 -6.841,6.842 -3.777,0 -6.841,-3.059 -6.841,-6.842 0,-3.776 3.065,-6.842 6.841,-6.842 z M 50,85.874 c -19.125,0 -34.627,-16.59 -34.627,-34.627 H 84.628 C 84.628,69.284 69.125,85.874 50,85.874 z" /></g><path
       transform="matrix(0.94339622,0,0,0.94339622,3.4087997,4.321612)"
       d="m 99.576271,77.118645 c 0,12.403004 -10.054622,22.457626 -22.457626,22.457626 -12.403005,0 -22.457627,-10.054622 -22.457627,-22.457626 0,-12.403005 10.054622,-22.457627 22.457627,-22.457627 12.403004,0 22.457626,10.054622 22.457626,22.457627 z"
       sodipodi:ry="22.457626"
       sodipodi:rx="22.457626"
       sodipodi:cy="77.118645"
       sodipodi:cx="77.118645"
       id="path3001"
       style="fill:#ffffff;fill-opacity:1;stroke:none"
       sodipodi:type="arc" /><g
       style="fill:#cccccc"
       id="Your_Icon"
       transform="matrix(0.44255951,0.097407,-0.097407,0.44255951,58.961309,50.040484)"><path
         id="path6"
         d="m 49.895,1.289 c -26.96,0 -48.816,21.856 -48.816,48.816 0,26.961 21.856,48.816 48.816,48.816 26.961,0 48.816,-21.855 48.816,-48.816 0,-26.96 -21.856,-48.816 -48.816,-48.816 z M 88,60.27 V 69.9 C 88,71.129 87.091,72 85.861,72 H 14.197 C 12.966,72 12,71.13 12,69.9 V 60.27 33.243 29.345 C 12,28.729 12.468,28 13.083,28 H 18 V 24.69 C 18,23.46 19.398,22 20.629,22 H 31.788 C 33.019,22 34,23.46 34,24.69 V 28 H 86.976 C 87.591,28 88,28.729 88,29.345 v 3.898 27.027 z"
         inkscape:connector-curvature="0"
         style="fill:#cccccc" /><path
         id="path8"
         d="m 50.426,32.906 c -9.531,0 -17.255,7.726 -17.255,17.256 0,9.53 7.725,17.258 17.255,17.258 9.53,0 17.258,-7.728 17.258,-17.258 0.001,-9.53 -7.728,-17.256 -17.258,-17.256 z m 0,26.556 c -5.127,0 -9.298,-4.172 -9.298,-9.3 0,-5.128 4.171,-9.299 9.298,-9.299 5.127,0 9.299,4.171 9.299,9.299 10e-4,5.128 -4.171,9.3 -9.299,9.3 z"
         inkscape:connector-curvature="0"
         style="fill:#cccccc" /></g></g></svg>